<svg xmlns="http://www.w3.org/2000/svg" version="1.1" xmlns:xlink="http://www.w3.org/1999/xlink" xmlns:svgjs="http://svgjs.dev/svgjs" width="100%" height="100%" viewBox="0 0 1000 600"><rect width="1000" height="600" x="0" y="0" fill="#1293"/><g><circle r="166.66666666666666" cx="403.86388651529944" cy="426.08611542670474" fill="#7763" transform="matrix(0.5269877703513913,0,0,0.5269877703513913,0,75.45786248697387)"/><path d="M324.8636316560085 445.5141207681392L309.05988416112785 489.7202350556915L323.4583062157461 491.4953829802335Q324.14864151973467 494.15810486704646 323.4583062157461 498.0782232004099L323.4583062157461 498.0782232004099Q312.2650123582175 497.5358168901333 304.62201434977294 497.5358168901333L304.62201434977294 497.5358168901333Q300.3813831967004 497.5358168901333 285.4652096640907 497.8809845421275L285.4652096640907 497.8809845421275Q284.4050518758226 494.7005111773231 285.4652096640907 491.4953829802335L285.4652096640907 491.4953829802335L297.1762549996107 489.3750674036972Q300.0115607124208 485.1097814183394 304.27684669777864 473.5713199088165L304.27684669777864 473.5713199088165L350.0855250838758 351.0861131154201L356.2985428197727 351.0861131154201L407.77783263149007 489.7202350556915L422.151599853823 491.4953829802335Q422.8665899900968 494.15810486704646 422.151599853823 498.0782232004099L422.151599853823 498.0782232004099Q410.9583059962944 497.5358168901333 397.1269450842382 497.5358168901333L397.1269450842382 497.5358168901333Q386.8212251889806 497.5358168901333 371.9050516563709 497.8809845421275L371.9050516563709 497.8809845421275Q370.8448938681028 494.7005111773231 371.9050516563709 491.4953829802335L371.9050516563709 491.4953829802335L386.6486413629834 489.3750674036972L371.0174776940999 445.5141207681392L324.8636316560085 445.5141207681392ZM348.4829609853309 377.8859158095469L348.4829609853309 377.8859158095469L348.3103771593338 377.8859158095469Q346.16540675051226 386.24390395426536 341.38236928716304 399.7300972143273L341.38236928716304 399.7300972143273L328.0687598530982 436.63838114542926L367.83700432929555 436.63838114542926L354.868562547225 399.7300972143273Q351.1456828721439 388.9066258410783 348.4829609853309 377.8859158095469ZM442.02339467577906 456.53483079967066L447.71866093368453 485.2823652443365Q457.9997259966568 492.38295694250445 476.6387792043476 492.38295694250445L476.6387792043476 492.38295694250445Q489.2373985021386 492.38295694250445 495.54903556717676 485.1097814183394Q501.86067263221486 477.83660589417434 501.86067263221486 467.7034698249139L501.86067263221486 467.7034698249139Q501.86067263221486 462.378026051288 500.9730986699439 458.7537657053481Q500.0855247076729 455.1048505271229 497.15159966572156 450.4943968897708Q494.2176746237703 445.88394325241876 487.8320730618762 441.2734896150667Q481.4464714999822 436.63838114542926 471.1407516047245 431.5101760300858L471.1407516047245 431.5101760300858Q459.059883784925 425.469742120186 451.61412443476274 420.1442983465601Q444.1683650846006 414.8188545729342 440.42083057723426 409.12358831502866Q436.69795090215314 403.45297688940843 435.4652092878879 398.30011694177966Q434.2078128413373 393.14725699415084 434.2078128413373 385.5289138179915L434.2078128413373 385.5289138179915Q434.2078128413373 369.897750149108 446.73246764227235 361.29321368153643Q459.25712244320744 352.6886772139649 476.29361155235335 352.6886772139649L476.29361155235335 352.6886772139649Q497.42280282085994 352.6886772139649 517.1220138168189 363.33956476121676L517.1220138168189 363.33956476121676L517.1220138168189 397.41254297950866Q511.081579906919 398.47270076777676 506.9888777475584 397.41254297950866L506.9888777475584 397.41254297950866L501.3182663219382 366.7172767843036Q489.95238863841246 360.5042590484067 475.92378906807375 360.5042590484067L475.92378906807375 360.5042590484067Q466.53029796737246 360.5042590484067 460.04607707633716 366.0762511448857Q453.5618561853019 371.67289807364995 453.5618561853019 381.80603414291045L453.5618561853019 381.80603414291045Q453.5618561853019 387.4766455685306 454.2768463215758 390.68177376562033Q454.9918364578496 393.8622471304247 457.8271421706597 398.22615244492374Q460.6624478834698 402.5654029271374 467.2452881036463 406.90465340935117Q473.8034734915375 411.26855872385016 484.79952869078363 416.59400249747614L484.79952869078363 416.59400249747614Q522.792625242439 435.0604718791697 522.792625242439 460.60287812674596L522.792625242439 460.60287812674596Q522.792625242439 478.72417985644535 508.9612643303828 489.8928188816886Q495.1052485860412 501.0861127392172 472.7433157032694 501.0861127392172L472.7433157032694 501.0861127392172Q450.5539666464947 501.0861127392172 431.91491343880386 490.60780901796244L431.91491343880386 490.60780901796244L431.91491343880386 456.53483079967066Q437.9553473487037 455.4746730114025 442.02339467577906 456.53483079967066L442.02339467577906 456.53483079967066Z " fill="#fdc500" transform="matrix(0.5269877703513913,0,0,0.5269877703513913,0,75.45786248697387)"/><path d="M684.8729414643706 424.42030051539L672.5995185474976 458.7514195324779L683.7815450427454 460.1300255387413Q684.3176696007367 462.1979345481364 683.7815450427454 465.24235614530147L683.7815450427454 465.24235614530147Q675.0886682810287 464.8211154211655 669.153003531839 464.8211154211655L669.153003531839 464.8211154211655Q665.8596669613207 464.8211154211655 654.2755470475795 465.08917770016114L654.2755470475795 465.08917770016114Q653.4522129049499 462.61917527227246 654.2755470475795 460.1300255387413L654.2755470475795 460.1300255387413L663.3705172277896 458.4833572534822Q665.5724573766826 455.17087337732147 668.8849412528433 446.2099343366092L668.8849412528433 446.2099343366092L704.4606351366967 351.08611990443273L709.2857561586187 351.08611990443273L749.2653303402581 458.7514195324779L760.4282095298634 460.1300255387413Q760.9834813934972 462.1979345481364 760.4282095298634 465.24235614530147L760.4282095298634 465.24235614530147Q751.7353327681467 464.8211154211655 740.9936943026776 464.8211154211655L740.9936943026776 464.8211154211655Q732.9901205440926 464.8211154211655 721.4060006303514 465.08917770016114L721.4060006303514 465.08917770016114Q720.5826664877218 462.61917527227246 721.4060006303514 460.1300255387413L721.4060006303514 460.1300255387413L732.8560894045949 458.4833572534822L720.7166976272197 424.42030051539L684.8729414643706 424.42030051539ZM703.2160602699312 371.899241137882L703.2160602699312 371.899241137882L703.0820291304333 371.899241137882Q701.4162135395317 378.3901777507056 697.7016362448775 388.8637539371791L697.7016362448775 388.8637539371791L687.3620911979017 417.5272704840729L718.246695199331 417.5272704840729L708.1752124313509 388.8637539371791Q705.2839692793264 380.45808676010074 703.2160602699312 371.899241137882ZM819.2870270750547 440.82954145105333L819.2870270750547 415.6125399198182Q819.2870270750547 404.9857852882042 816.4723731456002 400.7159361299161Q813.6385719105031 396.446086971628 807.0136041581817 396.446086971628L807.0136041581817 396.446086971628Q796.8272375563463 396.446086971628 786.4876925093706 411.74478418002354L786.4876925093706 411.74478418002354L786.4876925093706 457.7940542503505L797.6505716989759 459.86196325974566Q798.2058435626097 462.0639034086386 797.6505716989759 465.37638728479936L797.6505716989759 465.37638728479936Q788.9576949372592 464.9551465606633 779.8627247570491 464.9551465606633L779.8627247570491 464.9551465606633Q773.5249665893659 464.9551465606633 761.9408466756246 465.24235614530147L761.9408466756246 465.24235614530147Q761.1175125329951 462.61917527227246 761.9408466756246 459.86196325974566L761.9408466756246 459.86196325974566L772.8356635862342 458.3493261139844Q773.390935449868 450.7669930795355 773.390935449868 440.82954145105333L773.390935449868 440.82954145105333L773.390935449868 403.05190741830694Q773.390935449868 400.29469540578003 772.9696947257321 397.95872411738924L772.9696947257321 397.95872411738924L762.0748778151225 396.58011811112584Q761.5196059514885 394.51220910173066 762.0748778151225 391.3337563650678L762.0748778151225 391.3337563650678Q771.5910887194686 390.6444533619361 785.7983895062389 388.4425132130431L785.7983895062389 388.4425132130431Q787.023817067362 389.8211192193065 787.1769955125023 391.1997252255699L787.1769955125023 391.1997252255699Q786.4876925093706 394.78027138072633 786.4876925093706 403.473148142443L786.4876925093706 403.473148142443Q797.3633621143376 388.4425132130431 811.015391037474 388.4425132130431L811.015391037474 388.4425132130431Q832.3837841345572 388.4425132130431 832.3837841345572 408.719509888501L832.3837841345572 408.719509888501L832.3837841345572 457.7940542503505L843.5466633241624 459.86196325974566Q844.1019351877964 462.0639034086386 843.5466633241624 465.37638728479936L843.5466633241624 465.37638728479936Q834.8729338680885 464.9551465606633 825.7779636878784 464.9551465606633L825.7779636878784 464.9551465606633Q819.4210582145524 464.9551465606633 807.8560856064538 465.24235614530147L807.8560856064538 465.24235614530147Q807.0136041581817 462.61917527227246 807.8560856064538 459.86196325974566L807.8560856064538 459.86196325974566L818.7317552114207 458.3493261139844Q819.2870270750547 450.7669930795355 819.2870270750547 440.82954145105333L819.2870270750547 440.82954145105333ZM916.7659601012645 391.1997252255699L916.7659601012645 391.1997252255699L916.7659601012645 445.2525690544818Q916.7659601012645 454.48157037418974 917.1680535197579 458.196147668844L917.1680535197579 458.196147668844L928.0628704303675 459.5747536751074Q928.4841111545036 461.79584112964295 928.0628704303675 464.8211154211655L928.0628704303675 464.8211154211655Q917.9913876623875 465.24235614530147 907.1157180574205 466.75499329106276L907.1157180574205 466.75499329106276Q906.1392054696505 465.7784807032928 905.737112051157 464.13181241803375L905.737112051157 464.13181241803375L905.0478090480253 451.85838950116073Q899.2461754383335 459.3066913961117 893.1190376327181 463.442509414902Q886.9727525214604 467.5783274336923 878.7011164838799 467.5783274336923L878.7011164838799 467.5783274336923Q870.2954493068014 467.5783274336923 864.5704049196797 463.3084782754042Q858.8645078382006 459.0386291171161 858.8645078382006 448.6990840701404L858.8645078382006 448.6990840701404L858.8645078382006 418.0825423477068Q858.8645078382006 402.3626044151752 858.4432671140645 397.95872411738924L858.4432671140645 397.95872411738924L847.5484502034549 396.58011811112584Q846.993178339821 394.51220910173066 847.5484502034549 391.3337563650678L847.5484502034549 391.3337563650678Q857.064661107801 390.6444533619361 871.2719618945714 388.4425132130431L871.2719618945714 388.4425132130431Q872.4973894556945 389.8211192193065 872.6505679008349 391.1997252255699L872.6505679008349 391.1997252255699Q871.9612648977031 394.78027138072633 871.9612648977031 441.8060540388233L871.9612648977031 441.8060540388233Q871.9612648977031 451.4562960826672 874.2206469635237 455.51552487888733Q876.4991763349868 459.5747536751074 882.7029033631723 459.5747536751074L882.7029033631723 459.5747536751074Q894.2870232769136 459.5747536751074 903.6692030417619 445.78869361247314L903.6692030417619 445.78869361247314L903.6692030417619 417.9485112082089Q903.6692030417619 402.3626044151752 903.2479623176259 397.95872411738924L903.2479623176259 397.95872411738924L892.3531454070163 396.58011811112584Q891.7978735433824 394.51220910173066 892.3531454070163 391.3337563650678L892.3531454070163 391.3337563650678Q900.6247814445969 390.79763180707647 915.387354095001 388.4425132130431L915.387354095001 388.4425132130431Q916.6127816561241 389.8211192193065 916.7659601012645 391.1997252255699ZM954.1223534098749 377.4136651629357L954.1223534098749 399.8926019872866Q965.5532948784758 388.4425132130431 979.0712926621143 388.4425132130431L979.0712926621143 388.4425132130431Q992.4361120006126 388.4425132130431 999.9610031181338 398.51399598102313Q1007.4667469300125 408.56633144336064 1007.4667469300125 425.6648753821556L1007.4667469300125 425.6648753821556Q1007.4667469300125 445.09939060934147 996.9931707435389 456.33885902151684Q986.5195945570654 467.5783274336923 970.9336877640317 467.5783274336923L970.9336877640317 467.5783274336923Q957.4348372860355 467.5783274336923 949.6993258064463 457.9280853898483L949.6993258064463 457.9280853898483L946.8080826544217 467.31026515469665Q944.1849017813927 467.71235857319016 942.4042023566358 467.31026515469665L942.4042023566358 467.31026515469665L941.0255963503723 452.14559908579895L941.0255963503723 361.8469056755445L929.7095387156266 360.46829966928107Q929.1734141576353 358.40039065988594 929.7095387156266 355.22193792322304L929.7095387156266 355.22193792322304Q939.2257496199728 354.5326349200913 953.4330504067431 352.33069477119835L953.4330504067431 352.33069477119835Q954.6776252735087 353.70930077746175 954.8116564130065 355.0879067837252L954.8116564130065 355.0879067837252Q954.1223534098749 358.6684529388816 954.1223534098749 377.4136651629357L954.1223534098749 377.4136651629357ZM973.9781093611966 459.99599439924344L973.9781093611966 459.99599439924344Q982.5178076777729 459.99599439924344 988.1088209253968 452.06900986322876Q993.6806868673782 444.14202532721407 993.6806868673782 429.66666226144804L993.6806868673782 429.66666226144804Q993.6806868673782 426.77541910942335 993.5466557278803 425.2627819636621L993.5466557278803 425.2627819636621Q993.5466557278803 411.6107530405257 988.1088209253968 404.16245114557466Q982.6518388172708 396.7141492506237 974.3802027796901 396.7141492506237L974.3802027796901 396.7141492506237Q969.5550817577682 396.7141492506237 963.9066265932166 399.8160127647164Q958.258171428665 402.9178762788091 954.1223534098749 408.29826916436497L954.1223534098749 408.29826916436497L954.1223534098749 450.4797834948973Q958.813443292299 455.8601763804532 963.0832924505871 457.9280853898483Q967.3531416088751 459.99599439924344 973.9781093611966 459.99599439924344ZM1027.59056516033 440.82954145105333L1027.59056516033 375.34575615354055Q1027.59056516033 366.25078597333044 1027.1884717418366 361.8469056755445L1027.1884717418366 361.8469056755445L1016.2936548312268 360.46829966928107Q1015.738382967593 358.40039065988594 1016.2936548312268 355.22193792322304L1016.2936548312268 355.22193792322304Q1025.5226561509348 354.5326349200913 1039.863988077203 352.33069477119835L1039.863988077203 352.33069477119835Q1041.1085629439685 353.70930077746175 1041.2425940834664 355.0879067837252L1041.2425940834664 355.0879067837252Q1040.5532910803347 358.6684529388816 1040.5532910803347 377.4136651629357L1040.5532910803347 377.4136651629357L1040.5532910803347 403.473148142443Q1050.7588049878125 389.419025800813 1065.1001369140806 389.419025800813L1065.1001369140806 389.419025800813Q1073.639835230657 389.419025800813 1079.7095311193445 393.68887495910116Q1085.779227008032 397.95872411738924 1085.779227008032 408.29826916436497L1085.779227008032 408.29826916436497L1085.779227008032 457.7940542503505L1096.9421061976373 459.86196325974566Q1097.4973780612713 462.0639034086386 1096.9421061976373 465.37638728479936L1096.9421061976373 465.37638728479936Q1088.2492294359208 464.9551465606633 1079.2882903952086 464.9551465606633L1079.2882903952086 464.9551465606633Q1072.9505322275252 464.9551465606633 1061.366412313784 465.24235614530147L1061.366412313784 465.24235614530147Q1060.5430781711543 462.61917527227246 1061.366412313784 459.86196325974566L1061.366412313784 459.86196325974566L1072.2612292243934 458.3493261139844Q1072.8165010880275 450.7669930795355 1072.8165010880275 440.82954145105333L1072.8165010880275 440.82954145105333L1072.8165010880275 415.1912991956821Q1072.8165010880275 405.5410571518381 1070.4039405770664 401.27120799355Q1067.9913800661054 397.0013588352619 1061.653621898422 397.0013588352619L1061.653621898422 397.0013588352619Q1056.407260152364 397.0013588352619 1050.6822157652423 400.849967269414Q1044.976318683763 404.71772300920856 1040.5532910803347 412.0128464590192L1040.5532910803347 412.0128464590192L1040.5532910803347 457.7940542503505L1051.71617026994 459.86196325974566Q1052.2714421335738 462.0639034086386 1051.71617026994 465.37638728479936L1051.71617026994 465.37638728479936Q1043.0424408138658 464.9551465606633 1034.0815017731536 464.9551465606633L1034.0815017731536 464.9551465606633Q1027.7437436054702 464.9551465606633 1016.159623691729 465.24235614530147L1016.159623691729 465.24235614530147Q1015.3362895490995 462.61917527227246 1016.159623691729 459.86196325974566L1016.159623691729 459.86196325974566L1027.0544406023387 458.3493261139844Q1027.59056516033 450.7669930795355 1027.59056516033 440.82954145105333L1027.59056516033 440.82954145105333ZM1117.7552274310865 446.47799661560487L1117.7552274310865 446.47799661560487Q1117.7552274310865 453.65823623156024 1120.3784083041155 456.6260686061551Q1123.0015891771445 459.5747536751074 1128.6500443416962 459.5747536751074L1128.6500443416962 459.5747536751074Q1132.7858623604866 459.5747536751074 1137.8216037444763 457.02816202464857Q1142.8573451284665 454.48157037418974 1147.1271942867547 449.65644935226777L1147.1271942867547 449.65644935226777L1147.1271942867547 428.1540251156868Q1132.9198934999843 428.97735925831637 1125.3375604655355 433.18976649967686Q1117.7552274310865 437.38302643539475 1117.7552274310865 446.47799661560487ZM1147.1271942867547 423.194872954267L1147.1271942867547 423.194872954267L1147.1271942867547 416.14866447780946Q1147.1271942867547 404.43051342457034 1144.4274241911553 399.12670976158466Q1141.7468014011988 393.822906098599 1135.5430743730133 393.822906098599L1135.5430743730133 393.822906098599Q1129.20531620533 393.822906098599 1125.3375604655355 397.88213489481905Q1121.4889520313834 401.9605109966817 1120.11034602512 411.74478418002354L1120.11034602512 411.74478418002354Q1115.6873184216915 412.7021494621509 1113.6194094122964 412.7021494621509L1113.6194094122964 412.7021494621509Q1108.2390165267404 412.7021494621509 1107.281651244613 408.85354102799886L1107.281651244613 408.85354102799886Q1107.281651244613 399.4713612631505 1115.4192561426958 393.9569372380968Q1123.5568610407786 388.4425132130431 1135.6771055125112 388.4425132130431L1135.6771055125112 388.4425132130431Q1149.0610721566518 388.4425132130431 1154.632938098633 393.8994953211692Q1160.223951346257 399.3373301236527 1160.223951346257 413.3914524652826L1160.223951346257 413.3914524652826L1160.223951346257 452.2796302252968Q1160.223951346257 455.72614524095536 1160.6260447647505 458.196147668844L1160.6260447647505 458.196147668844L1171.5208616753603 459.5747536751074Q1172.0761335389939 461.64266268450257 1171.5208616753603 464.8211154211655L1171.5208616753603 464.8211154211655Q1161.7365884920184 465.24235614530147 1150.707740441911 466.75499329106276L1150.707740441911 466.75499329106276Q1149.5971967146431 465.64444956379504 1149.3291344356476 463.9977812785359L1149.3291344356476 463.9977812785359L1148.6398314325158 454.48157037418974Q1137.1897426582723 467.5783274336923 1123.1356203166424 467.5783274336923L1123.1356203166424 467.5783274336923Q1114.4427435549258 467.5783274336923 1109.5601806160762 462.61917527227246Q1104.658470371584 457.66002311085265 1104.658470371584 449.2352086281317L1104.658470371584 449.2352086281317Q1104.658470371584 436.5596922927652 1116.1660010627552 430.0879029855841Q1127.6926790595687 423.5969663727605 1147.1271942867547 423.194872954267ZM1240.049068570038 397.8246929778914L1211.5004358569995 470.89081130985306L1208.609192704975 470.89081130985306L1180.0797072975788 397.95872411738924L1171.3868305358624 396.31205583213017Q1170.8315586722285 394.09096837759466 1171.3868305358624 390.79763180707647L1171.3868305358624 390.79763180707647Q1178.9691635703111 391.3337563650678 1187.7960714715257 391.3337563650678L1187.7960714715257 391.3337563650678Q1195.64646678497 391.3337563650678 1204.4733746861846 390.9316629465743L1204.4733746861846 390.9316629465743Q1205.2967088288142 393.68887495910116 1204.4733746861846 396.31205583213017L1204.4733746861846 396.31205583213017L1195.780497924468 397.95872411738924L1206.962524419716 429.66666226144804Q1211.7876454416378 443.45272232408234 1213.3002825873991 449.65644935226777L1213.3002825873991 449.65644935226777L1213.568344866395 449.65644935226777Q1216.8808287425554 437.8042671595308 1220.0592814792183 430.35596526457977L1220.0592814792183 430.35596526457977L1231.9114636719553 397.40345225375535L1221.1506779008437 396.31205583213017Q1220.5954060372096 394.09096837759466 1221.1506779008437 390.79763180707647L1221.1506779008437 390.79763180707647Q1228.7330109352924 391.3337563650678 1235.6260409666097 391.3337563650678L1235.6260409666097 391.3337563650678Q1241.4276745763013 391.3337563650678 1250.3886136170138 390.9316629465743L1250.3886136170138 390.9316629465743Q1251.2119477596434 393.68887495910116 1250.3886136170138 396.31205583213017L1250.3886136170138 396.31205583213017L1240.049068570038 397.8246929778914ZM1301.9331604067518 432.97914613760884L1306.3561880101802 455.3049045168193Q1314.3406144631226 460.819328541873 1328.8159775288887 460.819328541873L1328.8159775288887 460.819328541873Q1338.619398017873 460.819328541873 1343.5019609567225 455.17087337732147Q1348.4036712012148 449.52241821276994 1348.4036712012148 441.65287559368284L1348.4036712012148 441.65287559368284Q1348.4036712012148 437.5170575748926 1347.7143681980833 434.7024036454381Q1347.0250651949514 431.86860241034105 1344.7465358234883 428.28805625518464Q1342.4680064520253 424.70751010002823 1337.5088542906053 421.1269639448719Q1332.5497021291853 417.5272704840729 1324.5461283706004 413.544630910423L1324.5461283706004 413.544630910423Q1315.183095911395 408.85354102799886 1309.3814623017029 404.71772300920856Q1303.5989759976533 400.5819049904183 1300.707732845629 396.1588773869898Q1297.7973423879616 391.75499708920387 1296.8399771058344 387.7532102099114Q1295.882611823707 383.75142333061893 1295.882611823707 377.8349058870717L1295.882611823707 377.8349058870717Q1295.882611823707 365.69551410969655 1305.5902957844785 359.0131044404474Q1315.3171270508926 352.33069477119835 1328.5479152498929 352.33069477119835L1328.5479152498929 352.33069477119835Q1344.9571561855564 352.33069477119835 1360.2558533939518 360.6023308087789L1360.2558533939518 360.6023308087789L1360.2558533939518 387.0639072067797Q1355.5647635115279 387.88724134940924 1352.4054580805073 387.0639072067797L1352.4054580805073 387.0639072067797L1347.9824304770789 363.2255116818079Q1339.1555225758643 358.40039065988594 1328.2798529708975 358.40039065988594L1328.2798529708975 358.40039065988594Q1320.965582215444 358.40039065988594 1315.9298408314542 362.72768173510167Q1310.8940994474642 367.07412011596 1310.8940994474642 374.94366273504704L1310.8940994474642 374.94366273504704Q1310.8940994474642 379.347543032833 1311.449371311098 381.83669276636414Q1312.0046431747319 384.3066951942528 1314.2065833236247 387.69576829298376Q1316.4085234725178 391.06569408607214 1321.5208540790782 394.4356198791605Q1326.6140373799958 397.8246929778914 1335.1728830022143 401.9605109966817L1335.1728830022143 401.9605109966817Q1364.659733691738 416.30184292294985 1364.659733691738 436.13845156862914L1364.659733691738 436.13845156862914Q1364.659733691738 450.21172121590166 1353.9180952262686 458.8854506719757Q1343.1573094551568 467.5783274336923 1325.7907032373664 467.5783274336923L1325.7907032373664 467.5783274336923Q1308.5581281590735 467.5783274336923 1294.0827650933074 459.4407225356096L1294.0827650933074 459.4407225356096L1294.0827650933074 432.97914613760884Q1298.7738549757314 432.1558119949793 1301.9331604067518 432.97914613760884L1301.9331604067518 432.97914613760884ZM1402.571398863982 413.544630910423L1402.571398863982 413.544630910423L1402.571398863982 457.7940542503505L1413.7534253592298 459.86196325974566Q1413.8874564987277 460.55126626287733 1413.9448984156552 461.1065381265112Q1414.0214876382256 461.64266268450257 1414.0214876382256 462.3319656876343L1414.0214876382256 462.3319656876343Q1414.0214876382256 463.02126869076596 1413.9448984156552 463.7871609164679Q1413.8874564987277 464.5530531421698 1413.7534253592298 465.37638728479936L1413.7534253592298 465.37638728479936Q1405.0605485975134 464.9551465606633 1395.965578417303 464.9551465606633L1395.965578417303 464.9551465606633Q1392.7871256806402 464.9551465606633 1388.306656160284 465.0317357832335Q1383.826186639928 465.08917770016114 1378.0437003358784 465.24235614530147L1378.0437003358784 465.24235614530147Q1377.6224596117427 463.9977812785359 1377.6224596117427 462.61917527227246L1377.6224596117427 462.61917527227246Q1377.6224596117427 461.3746004055069 1378.0437003358784 459.86196325974566L1378.0437003358784 459.86196325974566L1388.9385172464881 458.3493261139844Q1389.206579525484 454.48157037418974 1389.3406106649818 450.13513199333147Q1389.4746418044795 445.78869361247314 1389.4746418044795 440.82954145105333L1389.4746418044795 440.82954145105333L1389.4746418044795 411.4767219010279Q1389.4746418044795 402.3626044151752 1389.072548385986 397.95872411738924L1389.072548385986 397.95872411738924L1378.1777314753763 396.58011811112584Q1377.9096691963807 395.8908151079941 1377.9096691963807 394.24414682273505L1377.9096691963807 394.24414682273505Q1377.9096691963807 393.5548438196033 1377.9096691963807 392.8655408164716Q1377.9096691963807 392.17623781333987 1378.1777314753763 391.3337563650678L1378.1777314753763 391.3337563650678Q1387.5599112402247 390.79763180707647 1401.8820958608503 388.4425132130431L1401.8820958608503 388.4425132130431Q1403.1266707276159 389.8211192193065 1403.2607018671138 391.1997252255699L1403.2607018671138 391.1997252255699Q1402.571398863982 395.06748096536455 1402.571398863982 413.544630910423ZM1382.4475806336645 364.31690810343315L1382.4475806336645 364.31690810343315Q1382.1795183546687 363.6276051003014 1382.1795183546687 362.88086018024205Q1382.1795183546687 362.1149679545402 1382.1795183546687 361.42566495140846L1382.1795183546687 361.42566495140846Q1382.1795183546687 357.7110876567542 1385.2813818687616 355.432558285291Q1388.3832453828543 353.15402891382786 1392.921156820138 353.15402891382786L1392.921156820138 353.15402891382786Q1397.2101532840688 353.15402891382786 1399.8907760740253 355.7006205642867Q1402.571398863982 358.24721221474556 1402.571398863982 362.670239818174L1402.571398863982 362.670239818174Q1402.571398863982 366.25078597333044 1399.4695353498892 368.4527261222234Q1396.3676718357965 370.65466627111635 1391.5425508138746 370.65466627111635L1391.5425508138746 370.65466627111635Q1388.2492142433564 370.65466627111635 1385.683475287255 369.0079979858573Q1383.136883636796 367.3613297005982 1382.4475806336645 364.31690810343315ZM1478.1266669294748 440.82954145105333L1478.1266669294748 415.6125399198182Q1478.1266669294748 404.9857852882042 1475.2928656943777 400.7159361299161Q1472.4782117649233 396.446086971628 1465.8532440126019 396.446086971628L1465.8532440126019 396.446086971628Q1455.647730105124 396.446086971628 1445.3081850581482 411.74478418002354L1445.3081850581482 411.74478418002354L1445.3081850581482 457.7940542503505L1456.490211553396 459.86196325974566Q1457.0263361113875 462.0639034086386 1456.490211553396 465.37638728479936L1456.490211553396 465.37638728479936Q1447.7973347916795 464.9551465606633 1438.7023646114694 464.9551465606633L1438.7023646114694 464.9551465606633Q1432.3646064437862 464.9551465606633 1420.7804865300448 465.24235614530147L1420.7804865300448 465.24235614530147Q1419.9571523874154 462.61917527227246 1420.7804865300448 459.86196325974566L1420.7804865300448 459.86196325974566L1431.6753034406545 458.3493261139844Q1432.2114279986458 450.7669930795355 1432.2114279986458 440.82954145105333L1432.2114279986458 440.82954145105333L1432.2114279986458 403.05190741830694Q1432.2114279986458 400.29469540578003 1431.8093345801522 397.95872411738924L1431.8093345801522 397.95872411738924L1420.9145176695426 396.58011811112584Q1420.3592458059088 394.51220910173066 1420.9145176695426 391.3337563650678L1420.9145176695426 391.3337563650678Q1430.4307285738887 390.6444533619361 1444.6188820550165 388.4425132130431L1444.6188820550165 388.4425132130431Q1445.863456921782 389.8211192193065 1445.99748806128 391.1997252255699L1445.99748806128 391.1997252255699Q1445.3081850581482 394.78027138072633 1445.3081850581482 403.473148142443L1445.3081850581482 403.473148142443Q1456.2030019687577 388.4425132130431 1469.8550308918943 388.4425132130431L1469.8550308918943 388.4425132130431Q1491.2234239889774 388.4425132130431 1491.2234239889774 408.719509888501L1491.2234239889774 408.719509888501L1491.2234239889774 457.7940542503505L1502.3863031785827 459.86196325974566Q1502.9415750422165 462.0639034086386 1502.3863031785827 465.37638728479936L1502.3863031785827 465.37638728479936Q1493.7125737225088 464.9551465606633 1484.5984562366561 464.9551465606633L1484.5984562366561 464.9551465606633Q1478.2606980689727 464.9551465606633 1466.6765781552313 465.24235614530147L1466.6765781552313 465.24235614530147Q1465.8532440126019 462.61917527227246 1466.6765781552313 459.86196325974566L1466.6765781552313 459.86196325974566L1477.571395065841 458.3493261139844Q1478.1266669294748 450.7669930795355 1478.1266669294748 440.82954145105333L1478.1266669294748 440.82954145105333ZM1520.997484263139 466.3337525669267L1520.997484263139 466.3337525669267Q1522.2420591299044 466.8890244305606 1523.065393272534 468.6888711609601L1523.065393272534 468.6888711609601Q1518.5274818352502 472.4034484556143 1518.5274818352502 479.8517503505653L1518.5274818352502 479.8517503505653Q1518.5274818352502 486.4575707972443 1524.5780304182954 490.4593576765367Q1530.6477263069828 494.4611445558291 1540.297968350827 494.4611445558291L1540.297968350827 494.4611445558291Q1550.235419979309 494.4611445558291 1556.841240425988 490.8040091781025Q1563.4662081783094 487.14687380037594 1563.4662081783094 480.54105335369707L1563.4662081783094 480.54105335369707Q1563.4662081783094 473.3608137377417 1560.8430273052804 469.9908879446533Q1558.2198464322514 466.6209621515649 1550.3694511188069 465.9316591484332L1550.3694511188069 465.9316591484332L1524.5780304182954 463.57654055439986Q1520.3081812600071 463.02126869076596 1517.4935273305528 459.09607103404375Q1514.6597260954557 455.17087337732147 1514.6597260954557 451.4562960826672L1514.6597260954557 451.4562960826672L1523.8887274151637 436.13845156862914Q1517.5509692474802 432.5579054134728 1514.3150745938897 426.6413879699256Q1511.0791799402991 420.7057232207358 1511.0791799402991 414.5019961925504L1511.0791799402991 414.5019961925504Q1511.0791799402991 402.78384513931127 1519.7529093963733 395.62275282899844Q1528.44578615809 388.4425132130431 1539.742696487193 388.4425132130431L1539.742696487193 388.4425132130431Q1550.6375133978026 388.4425132130431 1558.9091494353834 394.24414682273505L1558.9091494353834 394.24414682273505Q1559.5984524385149 375.34575615354055 1572.9824190826557 374.6564531504088L1572.9824190826557 374.6564531504088Q1576.562965237812 375.4797872930384 1576.562965237812 380.5921178995986L1576.562965237812 380.5921178995986Q1576.562965237812 383.3493299121254 1576.0076933741782 386.66181378828617L1576.0076933741782 386.66181378828617Q1570.6273004886223 387.0639072067797 1567.1807854729636 390.1657707208724Q1563.7342704573052 393.2676342349651 1562.2216333115439 397.26942111425757L1562.2216333115439 397.26942111425757Q1569.114663342861 404.16245114557466 1569.114663342861 414.5019961925504L1569.114663342861 414.5019961925504Q1569.114663342861 425.39681310315996 1560.2877554416464 432.6344946360429Q1551.460847540432 439.87217616892593 1539.742696487193 439.87217616892593L1539.742696487193 439.87217616892593Q1533.5389694590076 439.87217616892593 1528.5798172975879 438.2063605780243L1528.5798172975879 438.2063605780243L1523.8887274151637 450.4797834948973L1558.2198464322514 453.9262985105559Q1566.2234201908364 454.9028110983258 1570.4166801265542 459.7853740371755Q1574.6290873679145 464.68708428166764 1574.6290873679145 472.53747959511213L1574.6290873679145 472.53747959511213Q1574.6290873679145 486.3235396577464 1564.710783045075 493.69525233012723Q1554.7733314165928 501.0861123081506 1537.8279659229383 501.0861123081506L1537.8279659229383 501.0861123081506Q1523.7546962756658 501.0861123081506 1515.9043009622212 495.9737817015904Q1508.0347583431342 490.88059840067274 1508.0347583431342 482.32175277845397L1508.0347583431342 482.32175277845397Q1508.0347583431342 476.5392664744046 1511.768482943431 472.05879695404843Q1515.4830602380853 467.5783274336923 1520.997484263139 466.3337525669267ZM1523.4866339966702 414.5019961925504L1523.4866339966702 414.5019961925504Q1523.4866339966702 422.50556995113527 1527.9671035170263 428.1540251156868Q1532.4475730373824 433.80248028023834 1539.8958749323333 433.80248028023834L1539.8958749323333 433.80248028023834Q1547.190998382144 433.80248028023834 1551.8820882645682 428.21146703261445Q1556.5731781469924 422.6396010906331 1556.5731781469924 414.5019961925504L1556.5731781469924 414.5019961925504Q1556.5731781469924 405.67508829133595 1551.9586774871384 399.8160127647164Q1547.3250295216417 393.9569372380968 1539.8958749323333 393.9569372380968L1539.8958749323333 393.9569372380968Q1532.8496664558759 393.9569372380968 1528.1777238790942 399.8926019872866Q1523.4866339966702 405.8091194308338 1523.4866339966702 414.5019961925504ZM1590.7511187189398 440.82954145105333L1590.7511187189398 375.34575615354055Q1590.7511187189398 366.25078597333044 1590.349025300446 361.8469056755445L1590.349025300446 361.8469056755445L1579.4542083898366 360.46829966928107Q1578.8989365262028 358.40039065988594 1579.4542083898366 355.22193792322304L1579.4542083898366 355.22193792322304Q1588.6832097095448 354.5326349200913 1603.0245416358127 352.33069477119835L1603.0245416358127 352.33069477119835Q1604.2691165025785 353.70930077746175 1604.4031476420762 355.0879067837252L1604.4031476420762 355.0879067837252Q1603.7138446389445 358.6684529388816 1603.7138446389445 377.4136651629357L1603.7138446389445 377.4136651629357L1603.7138446389445 403.473148142443Q1613.9193585464222 389.419025800813 1628.2606904726904 389.419025800813L1628.2606904726904 389.419025800813Q1636.800388789267 389.419025800813 1642.8700846779543 393.68887495910116Q1648.939780566642 397.95872411738924 1648.939780566642 408.29826916436497L1648.939780566642 408.29826916436497L1648.939780566642 457.7940542503505L1660.1026597562472 459.86196325974566Q1660.6579316198809 462.0639034086386 1660.1026597562472 465.37638728479936L1660.1026597562472 465.37638728479936Q1651.4097829945306 464.9551465606633 1642.4488439538181 464.9551465606633L1642.4488439538181 464.9551465606633Q1636.111085786135 464.9551465606633 1624.5269658723937 465.24235614530147L1624.5269658723937 465.24235614530147Q1623.7036317297643 462.61917527227246 1624.5269658723937 459.86196325974566L1624.5269658723937 459.86196325974566L1635.4217827830034 458.3493261139844Q1635.9770546466375 450.7669930795355 1635.9770546466375 440.82954145105333L1635.9770546466375 440.82954145105333L1635.9770546466375 415.1912991956821Q1635.9770546466375 405.5410571518381 1633.5644941356763 401.27120799355Q1631.1519336247152 397.0013588352619 1624.814175457032 397.0013588352619L1624.814175457032 397.0013588352619Q1619.567813710974 397.0013588352619 1613.8427693238523 400.849967269414Q1608.136872242373 404.71772300920856 1603.7138446389445 412.0128464590192L1603.7138446389445 412.0128464590192L1603.7138446389445 457.7940542503505L1614.8767238285498 459.86196325974566Q1615.4319956921836 462.0639034086386 1614.8767238285498 465.37638728479936L1614.8767238285498 465.37638728479936Q1606.2029943724756 464.9551465606633 1597.2420553317634 464.9551465606633L1597.2420553317634 464.9551465606633Q1590.9042971640802 464.9551465606633 1579.320177250339 465.24235614530147L1579.320177250339 465.24235614530147Q1578.4968431077093 462.61917527227246 1579.320177250339 459.86196325974566L1579.320177250339 459.86196325974566L1590.2149941609484 458.3493261139844Q1590.7511187189398 450.7669930795355 1590.7511187189398 440.82954145105333L1590.7511187189398 440.82954145105333Z " fill="#fdc500" transform="matrix(0.5269877703513913,0,0,0.5269877703513913,0,75.45786248697387)"/></g></svg>